<?xml version="1.0" standalone="no"?>
<!DOCTYPE svg PUBLIC "-//W3C//DTD SVG 20010904//EN"
 "http://www.w3.org/TR/2001/REC-SVG-20010904/DTD/svg10.dtd">
<svg version="1.0" xmlns="http://www.w3.org/2000/svg"
 width="132.000000pt" height="132.000000pt" viewBox="0 0 132.000000 132.000000"
 preserveAspectRatio="xMidYMid meet">
<metadata>
Created by potrace 1.14, written by Peter Selinger 2001-2017
</metadata>
<g transform="translate(0.000000,132.000000) scale(0.100000,-0.100000)"
fill="#000000" stroke="none">
<path d="M33 1296 l-28 -24 0 -612 0 -612 28 -24 28 -24 599 0 599 0 28 24 28
24 0 612 0 612 -28 24 -28 24 -599 0 -599 0 -28 -24z m692 -326 c50 -5 117
-19 150 -32 78 -30 155 -104 178 -172 19 -56 24 -196 6 -196 -5 0 -27 14 -48
30 -20 17 -53 35 -72 40 -19 6 -178 10 -366 10 l-333 0 0 128 c0 111 2 131 18
145 22 20 95 36 210 46 126 12 157 12 257 1z m213 -385 c20 -9 47 -25 59 -37
12 -11 37 -23 55 -27 28 -6 33 -11 36 -40 4 -43 -13 -61 -58 -61 -35 0 -38 3
-44 33 -3 19 -20 47 -37 63 -61 59 -169 23 -185 -63 l-6 -33 -123 0 -122 0
-11 38 c-19 64 -72 98 -133 85 -37 -7 -76 -46 -84 -84 -8 -34 -22 -46 -38 -30
-11 11 -11 146 0 164 2 4 150 7 329 7 270 0 331 -3 362 -15z m-493 -110 c31
-30 32 -71 3 -102 -45 -48 -128 -16 -128 49 0 36 40 78 75 78 14 0 37 -11 50
-25z m477 5 c32 -25 39 -49 23 -87 -23 -55 -94 -61 -129 -11 -23 33 -20 66 10
93 32 30 63 32 96 5z"/>
<path d="M537 874 c-4 -4 -7 -43 -7 -86 l0 -78 95 0 96 0 -3 83 -3 82 -85 3
c-47 1 -89 0 -93 -4z"/>
<path d="M300 785 l0 -86 93 3 92 3 3 83 3 82 -96 0 -95 0 0 -85z"/>
<path d="M762 788 l3 -83 118 -3 c101 -2 117 -1 117 13 0 38 -64 117 -117 144
-12 6 -45 11 -73 11 l-51 0 3 -82z"/>
<path d="M370 445 c-20 -25 -8 -50 25 -50 21 0 31 5 33 18 4 21 -14 47 -33 47
-7 0 -18 -7 -25 -15z"/>
<path d="M854 446 c-15 -12 -17 -18 -8 -33 17 -27 58 -24 62 6 2 13 -2 28 -10
32 -18 12 -21 11 -44 -5z"/>
</g>
</svg>
